<?xml version="1.0" standalone="no"?>
<!DOCTYPE svg PUBLIC "-//W3C//DTD SVG 20010904//EN"
 "http://www.w3.org/TR/2001/REC-SVG-20010904/DTD/svg10.dtd">
<svg version="1.0" xmlns="http://www.w3.org/2000/svg"
 width="2230.000000pt" height="2230.000000pt" viewBox="0 0 2230.000000 2230.000000"
 preserveAspectRatio="xMidYMid meet">
<metadata>
Created by potrace 1.11, written by Peter Selinger 2001-2013
</metadata>
<g transform="translate(0.000000,2230.000000) scale(0.100000,-0.100000)"
fill="#000000" stroke="none">
<path d="M10805 22294 c-2104 -71 -3898 -607 -5555 -1662 -1322 -842 -2577
-2073 -3457 -3393 -1013 -1519 -1591 -3191 -1747 -5054 -32 -371 -40 -583 -40
-1035 0 -452 8 -664 40 -1035 226 -2709 1356 -5042 3389 -7006 865 -835 1764
-1478 2774 -1984 1206 -604 2500 -962 3906 -1079 370 -31 582 -39 1035 -39
570 0 915 19 1430 79 2261 263 4285 1194 6010 2764 1977 1799 3176 3963 3564
6430 100 634 140 1169 140 1870 0 452 -8 664 -40 1035 -227 2709 -1356 5043
-3389 7005 -1895 1830 -4120 2850 -6680 3064 -384 33 -1041 51 -1380 40z
m2488 -3657 c1478 -1076 2689 -1958 2690 -1961 4 -8 -654 -906 -663 -906 -7 0
-5239 3801 -5274 3831 -4 4 97 246 224 537 l233 531 51 -38 c28 -21 1261 -918
2739 -1994z m-171 -2094 c1074 -790 1998 -1468 2052 -1505 198 -138 387 -309
553 -503 224 -259 339 -496 396 -809 19 -105 22 -157 22 -396 0 -245 -3 -288
-23 -395 -27 -141 -85 -320 -142 -440 -93 -196 -401 -599 -665 -874 -69 -71
-330 -281 -1098 -884 -554 -435 -1006 -794 -1005 -798 2 -4 419 -428 928 -941
1634 -1648 1658 -1672 1756 -1803 238 -317 430 -704 594 -1195 80 -241 101
-339 107 -520 6 -182 -8 -286 -63 -450 -72 -216 -192 -398 -404 -611 -165
-165 -320 -286 -549 -427 l-151 -92 -4864 2 -4864 3 676 1127 677 1128 3367 2
3367 3 -1874 1975 c-1031 1086 -1874 1978 -1875 1982 0 4 839 714 1865 1579
1027 864 1865 1572 1863 1574 -2 1 -892 651 -1978 1445 -1086 794 -1977 1445
-1979 1447 -3 2 1351 1813 1356 1813 2 0 881 -647 1955 -1437z m-3987 -13525
c-84 -61 -136 -147 -159 -263 -17 -81 -36 -304 -36 -412 0 -320 -210 -597
-525 -689 -55 -16 -133 -18 -911 -21 -550 -3 -860 0 -877 6 -14 6 -34 22 -44
38 -16 25 -18 60 -21 387 -4 410 1 450 68 584 93 184 267 325 463 373 66 16
149 18 1072 18 l1000 0 -30 -21z"/>
</g>
</svg>
